<?xml version="1.0" encoding="UTF-8"?>
<svg width="1200" height="1400" xmlns="http://www.w3.org/2000/svg">
  <defs>
    <style>
      .title { font-family: Arial, sans-serif; font-size: 24px; font-weight: bold; fill: #2c3e50; }
      .subtitle { font-family: Arial, sans-serif; font-size: 16px; font-weight: bold; fill: #34495e; }
      .text { font-family: Arial, sans-serif; font-size: 12px; fill: #2c3e50; }
      .small-text { font-family: Arial, sans-serif; font-size: 10px; fill: #7f8c8d; }
      .input-box { fill: #e8f5e8; stroke: #27ae60; stroke-width: 2; }
      .cnn-box { fill: #e3f2fd; stroke: #2196f3; stroke-width: 2; }
      .vit-box { fill: #fff3e0; stroke: #ff9800; stroke-width: 2; }
      .fusion-box { fill: #f3e5f5; stroke: #9c27b0; stroke-width: 2; }
      .cluster-box { fill: #ffebee; stroke: #f44336; stroke-width: 2; }
      .classifier-box { fill: #e0f2f1; stroke: #009688; stroke-width: 2; }
      .output-box { fill: #fce4ec; stroke: #e91e63; stroke-width: 2; }
      .arrow { stroke: #34495e; stroke-width: 2; fill: none; marker-end: url(#arrowhead); }
      .data-flow { stroke: #3498db; stroke-width: 1.5; fill: none; stroke-dasharray: 5,5; }
    </style>
    <marker id="arrowhead" markerWidth="10" markerHeight="7" refX="9" refY="3.5" orient="auto">
      <polygon points="0 0, 10 3.5, 0 7" fill="#34495e" />
    </marker>
  </defs>
  
  <!-- Title -->
  <text x="600" y="30" text-anchor="middle" class="title">FSRA ViT Improved - Algorithm Flow</text>
  <text x="600" y="55" text-anchor="middle" class="subtitle">True ViT+CNN Hybrid with Community Clustering</text>
  
  <!-- Input Layer -->
  <rect x="50" y="80" width="200" height="60" rx="10" class="input-box"/>
  <text x="150" y="105" text-anchor="middle" class="subtitle">Input Images</text>
  <text x="150" y="125" text-anchor="middle" class="text">Satellite: (B, 3, 256, 256)</text>
  
  <rect x="950" y="80" width="200" height="60" rx="10" class="input-box"/>
  <text x="1050" y="105" text-anchor="middle" class="subtitle">Drone Images</text>
  <text x="1050" y="125" text-anchor="middle" class="text">Drone: (B, 3, 256, 256)</text>
  
  <!-- CNN Branch -->
  <rect x="50" y="180" width="200" height="80" rx="10" class="cnn-box"/>
  <text x="150" y="205" text-anchor="middle" class="subtitle">CNN Branch</text>
  <text x="150" y="225" text-anchor="middle" class="text">ResNet18 Backbone</text>
  <text x="150" y="240" text-anchor="middle" class="small-text">(B, 3, 256, 256) → (B, 512, 16, 16)</text>
  <text x="150" y="255" text-anchor="middle" class="small-text">+ Dimension Reduction + Pool</text>
  
  <!-- ViT Branch -->
  <rect x="300" y="180" width="200" height="80" rx="10" class="vit-box"/>
  <text x="400" y="205" text-anchor="middle" class="subtitle">ViT Branch</text>
  <text x="400" y="225" text-anchor="middle" class="text">10×10 Patches → ViT</text>
  <text x="400" y="240" text-anchor="middle" class="small-text">625 patches → Transformer</text>
  <text x="400" y="255" text-anchor="middle" class="small-text">→ (B, 100, 8, 8)</text>
  
  <!-- CNN Output -->
  <rect x="50" y="300" width="200" height="40" rx="5" class="cnn-box"/>
  <text x="150" y="325" text-anchor="middle" class="text">CNN Features: (B, 100, 8, 8)</text>
  
  <!-- ViT Output -->
  <rect x="300" y="300" width="200" height="40" rx="5" class="vit-box"/>
  <text x="400" y="325" text-anchor="middle" class="text">ViT Features: (B, 100, 8, 8)</text>
  
  <!-- Feature Fusion -->
  <rect x="175" y="380" width="200" height="60" rx="10" class="fusion-box"/>
  <text x="275" y="405" text-anchor="middle" class="subtitle">Feature Fusion</text>
  <text x="275" y="425" text-anchor="middle" class="text">Concat: (B, 200, 8, 8)</text>
  
  <!-- Global Average Pooling -->
  <rect x="175" y="480" width="200" height="40" rx="5" class="fusion-box"/>
  <text x="275" y="505" text-anchor="middle" class="text">Global Pool: (B, 200)</text>
  
  <!-- Community Clustering -->
  <rect x="450" y="380" width="250" height="80" rx="10" class="cluster-box"/>
  <text x="575" y="405" text-anchor="middle" class="subtitle">Community Clustering</text>
  <text x="575" y="425" text-anchor="middle" class="text">Graph-based + PCA Alignment</text>
  <text x="575" y="440" text-anchor="middle" class="small-text">(B, 200, 8, 8) → (B, 3, 256)</text>
  <text x="575" y="455" text-anchor="middle" class="small-text">3 Regional Communities</text>
  
  <!-- Global Classifier -->
  <rect x="50" y="580" width="180" height="60" rx="10" class="classifier-box"/>
  <text x="140" y="605" text-anchor="middle" class="subtitle">Global Classifier</text>
  <text x="140" y="625" text-anchor="middle" class="text">(B, 200) → (B, 701)</text>
  
  <!-- Regional Classifiers -->
  <rect x="280" y="580" width="180" height="60" rx="10" class="classifier-box"/>
  <text x="370" y="600" text-anchor="middle" class="subtitle">Regional Classifiers</text>
  <text x="370" y="615" text-anchor="middle" class="text">3 × ClassBlock</text>
  <text x="370" y="630" text-anchor="middle" class="small-text">(B, 256) → (B, 701)</text>
  
  <!-- Feature Fusion for Final -->
  <rect x="510" y="580" width="180" height="60" rx="10" class="fusion-box"/>
  <text x="600" y="605" text-anchor="middle" class="subtitle">Feature Fusion</text>
  <text x="600" y="625" text-anchor="middle" class="text">All Features → (B, 256)</text>
  
  <!-- Final Classifier -->
  <rect x="740" y="580" width="180" height="60" rx="10" class="classifier-box"/>
  <text x="830" y="605" text-anchor="middle" class="subtitle">Final Classifier</text>
  <text x="830" y="625" text-anchor="middle" class="text">(B, 256) → (B, 701)</text>
  
  <!-- Multi-level Predictions -->
  <rect x="300" y="700" width="400" height="80" rx="10" class="output-box"/>
  <text x="500" y="725" text-anchor="middle" class="subtitle">Multi-level Predictions</text>
  <text x="500" y="745" text-anchor="middle" class="text">5 Prediction Tensors: (B, 701) each</text>
  <text x="500" y="760" text-anchor="middle" class="small-text">Global + 3 Regional + Final</text>
  <text x="500" y="775" text-anchor="middle" class="small-text">For 701-class Geo-localization</text>
  
  <!-- Loss Computation -->
  <rect x="200" y="820" width="600" height="100" rx="10" class="output-box"/>
  <text x="500" y="845" text-anchor="middle" class="subtitle">Combined Loss Function</text>
  <text x="350" y="870" text-anchor="middle" class="text">Classification Loss</text>
  <text x="350" y="885" text-anchor="middle" class="small-text">CrossEntropy on 5 predictions</text>
  <text x="500" y="870" text-anchor="middle" class="text">Triplet Loss</text>
  <text x="500" y="885" text-anchor="middle" class="small-text">Feature similarity learning</text>
  <text x="650" y="870" text-anchor="middle" class="text">KL Divergence</text>
  <text x="650" y="885" text-anchor="middle" class="small-text">Mutual learning (optional)</text>
  <text x="500" y="905" text-anchor="middle" class="text">Total Loss = α·Classification + β·Triplet + γ·KL</text>
  
  <!-- Innovation Highlights -->
  <rect x="50" y="960" width="1100" height="120" rx="10" style="fill: #f8f9fa; stroke: #6c757d; stroke-width: 2;"/>
  <text x="600" y="985" text-anchor="middle" class="subtitle">🚀 Your Innovation Highlights</text>
  <text x="100" y="1010" class="text">1. True ViT+CNN Hybrid: 10×10 patches (625) + ResNet18 with spatial alignment</text>
  <text x="100" y="1030" class="text">2. Community Clustering: Graph-based feature grouping + PCA dimension alignment</text>
  <text x="100" y="1050" class="text">3. Multi-level Classification: Global + 3 Regional + Final predictions for robust learning</text>
  <text x="100" y="1070" class="text">4. Advanced Loss: Combined Classification + Triplet + KL for comprehensive optimization</text>
  
  <!-- Technical Specs -->
  <rect x="50" y="1120" width="1100" height="100" rx="10" style="fill: #e9ecef; stroke: #6c757d; stroke-width: 1;"/>
  <text x="600" y="1145" text-anchor="middle" class="subtitle">📊 Technical Specifications</text>
  <text x="100" y="1170" class="text">• Model Size: 56M parameters (54.5M backbone + 1.5M classifiers)</text>
  <text x="100" y="1190" class="text">• Memory Usage: ~446MB GPU, ~0.5GB RAM per batch</text>
  <text x="100" y="1210" class="text">• Training Speed: ~0.86s per batch (batch_size=4), University-1652 dataset (701 classes)</text>
  
  <!-- Arrows -->
  <!-- Input to branches -->
  <line x1="150" y1="140" x2="150" y2="180" class="arrow"/>
  <line x1="150" y1="140" x2="400" y2="180" class="arrow"/>
  
  <!-- Branches to outputs -->
  <line x1="150" y1="260" x2="150" y2="300" class="arrow"/>
  <line x1="400" y1="260" x2="400" y2="300" class="arrow"/>
  
  <!-- To fusion -->
  <line x1="150" y1="340" x2="225" y2="380" class="arrow"/>
  <line x1="400" y1="340" x2="325" y2="380" class="arrow"/>
  
  <!-- Fusion to pool -->
  <line x1="275" y1="440" x2="275" y2="480" class="arrow"/>
  
  <!-- To clustering -->
  <line x1="375" y1="410" x2="450" y2="410" class="arrow"/>
  
  <!-- To classifiers -->
  <line x1="275" y1="520" x2="140" y2="580" class="arrow"/>
  <line x1="575" y1="460" x2="370" y2="580" class="arrow"/>
  <line x1="575" y1="460" x2="600" y2="580" class="arrow"/>
  <line x1="600" y1="640" x2="830" y2="580" class="arrow"/>
  
  <!-- To predictions -->
  <line x1="140" y1="640" x2="350" y2="700" class="arrow"/>
  <line x1="370" y1="640" x2="450" y2="700" class="arrow"/>
  <line x1="830" y1="640" x2="650" y2="700" class="arrow"/>
  
  <!-- To loss -->
  <line x1="500" y1="780" x2="500" y2="820" class="arrow"/>
  
  <!-- Data flow lines -->
  <line x1="1050" y1="140" x2="1050" y2="1250" class="data-flow"/>
  <text x="1070" y="200" class="small-text">Drone images</text>
  <text x="1070" y="215" class="small-text">available for</text>
  <text x="1070" y="230" class="small-text">future extension</text>
  
</svg>
